<svg version="1.1" id="Layer_1" xmlns="http://www.w3.org/2000/svg" xmlns:xlink="http://www.w3.org/1999/xlink" x="0px" y="0px"
	 width="100%" viewBox="0 0 3374 1184" enable-background="new 0 0 3374 1184" xml:space="preserve">
<path fill="transparent" opacity="1.000000" stroke="none" 
	d="
M2131.000000,1185.000000 
	C1420.666626,1185.000000 710.833313,1185.000000 1.000000,1185.000000 
	C1.000000,790.333313 1.000000,395.666656 1.000000,1.000000 
	C1125.666626,1.000000 2250.333252,1.000000 3375.000000,1.000000 
	C3375.000000,395.666656 3375.000000,790.333313 3375.000000,1185.000000 
	C2960.500000,1185.000000 2546.000000,1185.000000 2131.000000,1185.000000 
M200.066193,624.146179 
	C200.346451,625.219788 200.626694,626.293335 201.138931,627.980896 
	C218.095169,640.977478 235.076477,653.941528 252.002533,666.977295 
	C287.412506,694.248840 322.770966,721.587219 358.193268,748.842712 
	C386.396606,770.543640 414.694366,792.121826 442.892487,813.829529 
	C469.662903,834.438171 496.312225,855.204285 523.101807,875.787903 
	C543.333618,891.332825 563.752075,906.634705 583.997986,922.161377 
	C609.552124,941.758850 634.995972,961.500061 660.523743,981.132019 
	C681.323608,997.128113 702.318298,1012.875427 722.918335,1029.123779 
	C728.913025,1033.852295 734.754944,1036.320312 742.608398,1036.096680 
	C763.735168,1035.494873 784.887390,1035.785034 806.955811,1035.843262 
	C882.465271,1035.844971 957.974792,1035.847534 1033.484253,1035.840698 
	C1034.976440,1035.840576 1036.468750,1035.729492 1038.725586,1035.835815 
	C1038.524170,1035.175537 1038.322632,1034.515137 1038.091431,1033.888672 
	C1038.091431,1033.888672 1038.135864,1033.867310 1038.195068,1033.145264 
	C1028.072876,1024.755859 1018.069641,1016.217529 1007.803284,1008.008362 
	C987.293823,991.608765 966.618347,975.416992 946.050476,959.090149 
	C905.297119,926.740295 864.549194,894.383606 823.838135,861.980530 
	C779.232300,826.477478 734.699280,790.882935 690.082214,755.393982 
	C641.474304,716.730652 592.811279,678.136536 544.136841,639.556885 
	C542.922913,638.594727 541.316956,637.613708 539.856750,637.554443 
	C523.493774,636.889954 507.120453,636.485657 490.756042,635.852051 
	C468.402191,634.986511 446.053131,633.995911 423.703064,633.034912 
	C407.653748,632.344788 391.604736,631.644958 375.558105,630.895996 
	C356.869690,630.023743 338.186035,629.048035 319.496521,628.201233 
	C302.450287,627.428894 285.398132,626.786682 268.350220,626.049438 
	C262.553375,625.798828 256.761475,625.433289 250.070862,624.884644 
	C246.029999,624.885315 241.989151,624.885986 237.828262,624.817322 
	C237.828262,624.817322 237.722015,624.906372 237.335022,624.341797 
	C236.901321,624.266235 236.467636,624.190613 235.123093,623.935730 
	C231.411240,623.966797 227.699402,623.997803 223.251694,623.662842 
	C219.170227,623.583923 215.088867,623.450012 211.007278,623.442932 
	C207.547424,623.436951 204.087326,623.577576 200.980606,623.702454 
	C200.980606,623.702454 200.633942,623.618103 200.066193,624.146179 
M712.142700,167.970169 
	C711.170654,168.829407 710.198547,169.688629 709.061218,170.619736 
	C709.061218,170.619736 708.955444,170.765579 708.255920,170.881714 
	C698.582947,178.441406 688.909973,186.001083 679.064941,193.631332 
	C679.064941,193.631332 678.960938,193.785553 678.261658,193.898285 
	C668.590393,201.457794 658.919128,209.017288 649.069153,216.643646 
	C649.069153,216.643646 648.965515,216.803879 648.263062,216.910812 
	C643.206360,220.830917 638.136230,224.733795 633.096130,228.675079 
	C624.977478,235.023743 616.878540,241.397705 608.949524,248.012421 
	C608.949524,248.012421 608.787048,247.751709 608.113037,247.889053 
	C605.703430,249.824707 603.293823,251.760376 600.272827,254.016800 
	C570.940186,276.473724 541.596069,298.915771 512.278137,321.392029 
	C485.882446,341.628021 459.502533,361.884705 433.138611,382.162170 
	C385.547058,418.766602 337.973389,455.394348 290.390778,492.010406 
	C260.725037,514.838928 231.045792,537.650085 201.431198,560.544739 
	C200.327682,561.397888 199.841537,563.049500 199.067673,564.328979 
	C200.401474,565.007263 201.732147,566.258484 203.069626,566.265808 
	C209.205505,566.299500 215.350128,566.110107 221.479126,565.773315 
	C242.111801,564.639526 262.737335,563.376038 283.369202,562.226990 
	C296.745270,561.481995 310.127258,560.842773 323.507263,560.169067 
	C342.680359,559.203674 361.852142,558.210022 381.028046,557.304077 
	C396.908966,556.553711 412.792542,555.847046 428.679474,555.239929 
	C448.395630,554.486511 468.118011,553.896667 487.834473,553.150757 
	C495.276154,552.869324 502.705292,552.262146 510.146515,551.960571 
	C519.092957,551.597961 528.051025,551.501831 536.993103,551.065002 
	C539.193665,550.957581 541.828918,550.584229 543.458008,549.305664 
	C571.655151,527.176880 599.767700,504.939728 627.813599,482.619232 
	C659.226746,457.619080 690.495972,432.437988 721.934937,407.470459 
	C757.375977,379.324585 792.972656,351.374756 828.433350,323.253540 
	C856.519226,300.980713 884.517029,278.596527 912.523132,256.223236 
	C923.748413,247.255661 934.891418,238.184891 946.766052,229.055756 
	C949.782837,226.545578 952.799683,224.035400 955.960693,221.442398 
	C955.960693,221.442398 956.074524,221.321152 956.761719,221.186203 
	C958.601013,219.552490 960.440247,217.918793 962.000000,216.000610 
	C962.000000,216.000610 962.282288,216.282364 962.962219,216.154251 
	C971.906128,208.943420 980.849976,201.732605 989.958069,194.417831 
	C989.958069,194.417831 990.048096,194.245544 990.746887,194.110840 
	C993.773315,191.621613 996.799744,189.132385 999.988770,186.548035 
	C999.988770,186.548035 1000.121155,186.413986 1000.811401,186.239136 
	C1003.663940,183.860321 1006.516479,181.481522 1009.833801,178.902023 
	C1010.257202,178.391327 1010.680603,177.880630 1011.740112,177.059540 
	C1021.291809,169.465729 1030.843506,161.871933 1041.062256,153.747803 
	C1039.388428,153.316681 1039.098267,153.176514 1038.808228,153.176483 
	C937.323303,153.168335 835.838318,153.166687 734.353394,153.207642 
	C733.144165,153.208130 731.935242,153.760040 730.218262,154.229492 
	C730.120667,154.379608 730.023010,154.529724 729.224304,154.826675 
	C723.735474,159.140686 718.246643,163.454681 712.992676,167.992767 
	C712.992676,167.992767 712.768127,167.758316 712.142700,167.970169 
M175.300690,702.785217 
	C174.882584,702.824524 174.464462,702.863892 173.530960,702.331909 
	C172.907898,703.946045 171.741089,705.559631 171.739349,707.174438 
	C171.623093,815.778381 171.600540,924.382446 171.570282,1032.986450 
	C171.568542,1039.232300 171.570053,1045.478027 171.570053,1051.723877 
	C172.162628,1052.100342 172.755219,1052.476807 173.347794,1052.853271 
	C173.710541,1051.944458 174.073303,1051.035767 175.045441,1049.893188 
	C176.449951,1048.752563 177.873856,1047.634766 179.256042,1046.467773 
	C201.739166,1027.484619 224.182648,1008.454285 246.705811,989.518738 
	C268.089752,971.540955 289.572906,953.681274 310.980865,935.731995 
	C330.995758,918.950623 350.974396,902.126099 370.957367,885.306702 
	C376.327972,880.786316 381.656128,876.215576 387.236908,871.469727 
	C373.762268,860.700317 360.704742,850.341797 347.731110,839.879211 
	C320.992950,818.316162 294.333954,796.654907 267.577332,775.114929 
	C245.342209,757.214966 223.044662,739.392090 200.709839,721.616638 
	C193.141968,715.593628 185.375565,709.820068 177.294342,703.216858 
	C176.839066,703.090210 176.383789,702.963562 175.300690,702.785217 
M170.826584,474.651398 
	C170.895996,475.104370 170.965408,475.557343 170.895279,476.910736 
	C171.240677,480.137756 171.586090,483.364777 172.401245,486.982971 
	C175.126724,485.645996 178.104660,484.656494 180.524231,482.898529 
	C185.319702,479.414215 189.795074,475.490875 194.423630,471.775055 
	C224.050858,447.990021 253.677338,424.204071 283.316681,400.434143 
	C309.999298,379.035431 336.704773,357.665192 363.385437,336.264038 
	C371.046600,330.118835 378.656799,323.910004 386.558716,317.513092 
	C384.503815,315.883514 382.923920,314.695435 381.414368,313.423859 
	C355.351135,291.468811 329.305939,269.492249 303.237366,247.543518 
	C276.295319,224.859360 249.351410,202.177322 222.371445,179.538300 
	C206.164734,165.939133 189.887497,152.423996 173.175980,138.190659 
	C172.549652,137.824066 171.923325,137.457458 171.023193,136.930618 
	C171.023193,141.593918 171.023193,145.792709 170.806961,150.904541 
	C170.870560,155.936127 170.934143,160.967712 170.848053,166.926300 
	C170.899902,183.617096 170.951767,200.307877 170.780609,217.912216 
	C170.852081,223.940964 170.923553,229.969696 170.843430,236.925262 
	C170.890610,244.952103 170.937790,252.978928 170.754333,261.917603 
	C170.831131,271.610107 170.907944,281.302582 170.830780,291.922028 
	C170.882111,301.283295 170.933441,310.644531 170.754303,320.916229 
	C170.830978,326.609131 170.907654,332.302063 170.830322,338.921417 
	C170.881073,345.283173 170.931839,351.644928 170.749634,358.917908 
	C170.828781,374.277222 170.907913,389.636536 170.835602,405.923065 
	C170.897400,416.612793 170.959213,427.302521 170.805588,438.777740 
	C170.877396,439.853973 170.949219,440.930176 170.877380,442.933289 
	C170.929626,453.284760 170.981857,463.636230 170.826584,474.651398 
M1589.747314,958.752747 
	C1599.909424,970.642700 1610.145264,982.471130 1620.179199,994.468323 
	C1622.534180,997.283997 1625.016357,998.376038 1628.705322,998.362976 
	C1665.535767,998.232239 1702.366577,998.287842 1739.197388,998.271362 
	C1740.756958,998.270691 1742.316528,998.078857 1744.577393,997.929810 
	C1743.340698,996.248596 1742.651123,995.174377 1741.829468,994.212952 
	C1682.960815,925.324219 1624.078491,856.447266 1565.204590,787.563171 
	C1526.075439,741.781006 1486.964844,695.983093 1447.831299,650.204834 
	C1425.228882,623.764343 1402.620728,597.328491 1379.941162,570.954163 
	C1377.765503,568.424072 1377.196533,566.751038 1379.828369,563.909058 
	C1438.075684,501.009003 1496.198975,437.994171 1554.377930,375.030884 
	C1609.741089,315.114990 1665.142578,255.234558 1720.517456,195.329483 
	C1722.701904,192.966507 1724.785034,190.509842 1727.520264,187.411591 
	C1724.985962,187.202133 1723.544434,186.979660 1722.102783,186.978928 
	C1684.938721,186.960052 1647.774292,186.900742 1610.611450,187.112427 
	C1608.219971,187.126053 1605.209229,188.684433 1603.547119,190.496857 
	C1550.342407,248.513336 1497.267212,306.648712 1444.175903,364.769104 
	C1393.881836,419.827118 1343.582520,474.880493 1293.353027,529.997192 
	C1292.162964,531.302979 1291.773071,533.337891 1291.010132,535.032715 
	C1290.138672,534.418701 1289.267212,533.804626 1288.395752,533.190613 
	C1288.220337,530.981079 1287.892090,528.771545 1287.891602,526.561951 
	C1287.866455,415.403076 1287.841309,304.244141 1287.965210,193.085403 
	C1287.970459,188.383331 1286.875977,186.809616 1281.924072,186.848877 
	C1252.927979,187.078751 1223.928345,187.052750 1194.931641,186.867432 
	C1190.467773,186.838898 1189.015625,187.844070 1189.017700,192.611710 
	C1189.140137,459.259644 1189.126587,725.907593 1189.126587,992.555603 
	C1189.126587,994.321716 1189.126587,996.087830 1189.126587,998.282898 
	C1191.709839,998.282898 1193.519165,998.282898 1195.328613,998.282898 
	C1223.826660,998.282898 1252.324585,998.283203 1280.822632,998.282898 
	C1287.867310,998.282776 1287.869019,998.281982 1287.869141,991.275146 
	C1287.869751,865.950623 1287.867065,740.626038 1287.891113,615.301514 
	C1287.891602,612.967102 1288.207397,610.632690 1288.488647,606.740295 
	C1290.868042,609.247864 1292.132080,610.468689 1293.270508,611.797119 
	C1304.854370,625.315369 1316.421875,638.847534 1327.986084,652.382629 
	C1372.076416,703.987854 1416.160400,755.598450 1460.253174,807.201599 
	C1503.264282,857.538818 1546.283081,907.869446 1589.747314,958.752747 
M2786.171143,876.341919 
	C2785.680908,878.092896 2785.353027,879.909485 2784.676270,881.585144 
	C2776.448975,901.960876 2760.619629,914.204407 2740.355469,920.283813 
	C2721.749512,925.865662 2702.384277,926.570190 2683.097412,923.766357 
	C2670.834717,921.983582 2659.019043,918.720398 2647.367676,914.061035 
	C2629.962891,907.100891 2614.750000,897.144775 2601.287842,884.453308 
	C2587.668213,871.613342 2574.966064,857.895447 2564.768066,842.037598 
	C2563.051514,839.368652 2560.425537,837.284729 2558.428711,835.153625 
	C2533.883789,850.420288 2509.946533,865.308899 2484.976318,880.840027 
	C2494.430664,894.550903 2503.059570,907.521057 2512.164795,920.147461 
	C2522.305176,934.209167 2534.655762,946.350342 2548.126953,957.099670 
	C2568.240723,973.149109 2590.044678,986.155579 2614.565918,995.057129 
	C2633.253418,1001.840881 2652.232422,1006.372253 2671.732910,1008.355896 
	C2691.548584,1010.371643 2711.499023,1010.482971 2731.432861,1007.846252 
	C2751.297363,1005.218750 2770.375488,1000.359741 2788.656494,992.086060 
	C2805.671387,984.385559 2821.209961,974.376343 2834.447266,961.372498 
	C2850.097168,945.998230 2863.029785,928.679443 2871.191162,907.774109 
	C2877.111816,892.608643 2880.603760,877.072449 2881.947754,861.160645 
	C2883.273438,845.465515 2882.218994,829.741943 2878.821045,814.104675 
	C2875.465576,798.664246 2869.811523,784.447388 2860.758545,771.655273 
	C2848.838379,754.812561 2834.049072,740.545776 2816.703857,729.641602 
	C2798.513916,718.206604 2779.467773,708.030029 2760.285645,698.310486 
	C2746.308594,691.228271 2731.477783,685.840149 2717.078369,679.579712 
	C2709.657715,676.353577 2702.407471,672.735413 2694.978271,669.530823 
	C2671.063232,659.215271 2647.247559,648.732605 2626.927490,631.933411 
	C2611.629150,619.285706 2601.775146,604.007446 2603.528809,583.139771 
	C2604.564941,570.810669 2609.144287,559.915344 2618.913574,552.388855 
	C2635.047119,539.959106 2654.161133,535.799683 2674.112549,536.011658 
	C2684.178711,536.118591 2694.323242,537.368713 2704.253906,539.116577 
	C2712.610596,540.587402 2721.091309,542.641846 2728.843262,545.995972 
	C2745.936523,553.391968 2762.206787,562.479553 2775.722656,575.589539 
	C2783.448242,583.083252 2790.805908,590.987610 2797.923828,599.064392 
	C2802.130859,603.838013 2804.223145,605.063354 2808.617920,602.286255 
	C2816.831299,597.095764 2824.853760,591.603516 2833.036865,586.363708 
	C2842.034180,580.602539 2851.125488,574.987915 2860.171387,569.302307 
	C2865.486084,565.961792 2870.840576,562.678833 2876.045410,559.174744 
	C2876.744629,558.704163 2877.278076,556.683533 2876.864258,556.060913 
	C2870.938721,547.142090 2865.638184,537.635864 2858.616211,529.652954 
	C2842.621582,511.469208 2824.064209,496.152740 2802.689209,484.493500 
	C2782.300049,473.372070 2761.046143,464.646637 2738.250977,459.530609 
	C2720.146973,455.467468 2701.930420,453.501404 2683.457031,453.665863 
	C2665.799805,453.823059 2648.391357,455.966278 2631.148193,460.035614 
	C2615.266846,463.783539 2599.755371,468.754425 2585.400635,476.217133 
	C2569.559326,484.452515 2555.266602,495.048737 2543.275391,508.787354 
	C2526.129639,528.431458 2516.505859,550.890198 2513.797119,576.706177 
	C2512.401611,590.004761 2512.499023,603.310913 2514.417969,616.359985 
	C2517.664795,638.440979 2526.203125,658.237366 2540.745850,675.837097 
	C2557.260498,695.823425 2577.136719,711.205933 2599.855469,722.769897 
	C2623.267578,734.686768 2647.354980,745.308228 2671.358643,756.021912 
	C2686.706543,762.872253 2702.605713,768.487488 2717.955566,775.334229 
	C2736.373535,783.549805 2753.401855,794.106140 2767.801270,808.461548 
	C2775.466309,816.103455 2781.590088,824.863098 2784.927490,835.215820 
	C2789.200928,848.471375 2788.729980,862.043091 2786.171143,876.341919 
M3102.287109,326.500061 
	C3102.286865,312.667999 3102.134033,298.833252 3102.377930,285.005493 
	C3102.452393,280.775208 3101.069824,279.666626 3096.970459,279.691284 
	C3070.140381,279.852448 3043.308594,279.772034 3016.477539,279.776581 
	C3009.860596,279.777710 3009.855225,279.787964 3009.854980,286.366486 
	C3009.853516,343.861755 3009.857666,401.357025 3009.849609,458.852295 
	C3009.848877,465.111847 3009.674072,465.270844 3003.379883,465.272675 
	C2978.548584,465.279846 2953.716553,465.372864 2928.886719,465.188477 
	C2924.316406,465.154541 2922.786621,466.520294 2922.821045,471.166473 
	C2923.006104,496.163055 2923.019287,521.162659 2922.811035,546.158875 
	C2922.770996,550.967285 2924.205811,552.542969 2929.057861,552.503540 
	C2953.387451,552.305908 2977.719727,552.412842 3002.051025,552.412354 
	C3009.855469,552.412170 3009.854492,552.411438 3009.854492,560.462402 
	C3009.854492,704.283936 3009.880127,848.105469 3009.745605,991.926880 
	C3009.740967,996.899841 3010.866211,998.457825 3016.052734,998.406067 
	C3042.881104,998.138489 3069.713867,998.286255 3096.544922,998.270630 
	C3098.312500,998.269592 3100.079834,998.114014 3102.286865,998.009460 
	C3102.286865,995.213745 3102.286865,992.913208 3102.286865,990.612671 
	C3102.286865,846.957825 3102.286621,703.302917 3102.287598,559.648071 
	C3102.287598,552.420166 3102.290283,552.414490 3109.693359,552.413757 
	C3134.357910,552.411133 3159.023682,552.307068 3183.686523,552.509949 
	C3188.157471,552.546753 3189.336426,551.143005 3189.305664,546.806091 
	C3189.125244,521.476135 3189.125977,496.143555 3189.301758,470.813538 
	C3189.332764,466.348175 3187.804199,465.162567 3183.504883,465.192291 
	C3158.674561,465.364014 3133.842773,465.282745 3109.011475,465.271515 
	C3102.475098,465.268555 3102.289551,465.067902 3102.289062,458.489288 
	C3102.285400,414.826202 3102.287109,371.163147 3102.287109,326.500061 
M1838.294067,989.396301 
	C1838.471436,999.394653 1836.646118,998.270996 1847.402954,998.289734 
	C1873.234253,998.334656 1899.065552,998.304443 1924.896851,998.304565 
	C1926.687134,998.304565 1928.477539,998.304565 1930.875122,998.304565 
	C1930.875122,995.772339 1930.875244,993.821350 1930.875244,991.870300 
	C1930.875244,889.545044 1930.896606,787.219849 1930.859253,684.894592 
	C1930.850586,661.266235 1931.649536,637.747620 1936.619019,614.504028 
	C1939.819824,599.533630 1944.134033,585.174438 1953.094971,572.459106 
	C1959.196411,563.800964 1966.325317,556.341248 1975.540771,551.107300 
	C1990.290405,542.730103 2006.479858,540.400818 2023.121094,540.668823 
	C2035.740967,540.872009 2048.424561,541.836243 2059.855957,547.695374 
	C2069.574951,552.676758 2078.854736,558.546082 2088.132324,564.337341 
	C2090.921387,566.078308 2092.411621,566.626221 2094.512207,563.457214 
	C2110.030029,540.047791 2125.747070,516.770264 2141.218750,493.330872 
	C2141.946289,492.228363 2141.600586,489.160095 2140.646240,488.400726 
	C2131.974854,481.501709 2123.558350,474.069519 2114.090332,468.434937 
	C2100.585205,460.397797 2085.211182,457.661560 2069.725586,455.342682 
	C2038.209473,450.623352 2009.164307,455.788025 1982.505249,473.935699 
	C1965.880371,485.252869 1951.833252,499.076569 1939.307007,514.621765 
	C1936.823853,517.703369 1934.492554,520.907349 1932.091064,524.054871 
	C1931.686279,523.848572 1931.281616,523.642212 1930.876831,523.435913 
	C1930.876831,521.652893 1930.876831,519.869812 1930.876709,518.086792 
	C1930.876099,502.421356 1930.725464,486.753632 1930.966797,471.091919 
	C1931.038574,466.435272 1929.516235,465.137054 1924.927856,465.171265 
	C1898.431396,465.368896 1871.932861,465.265808 1845.434937,465.268463 
	C1838.297119,465.269196 1838.294067,465.275391 1838.294067,472.462769 
	C1838.293579,644.449158 1838.294067,816.435486 1838.294067,989.396301 
M2346.128906,552.500000 
	C2346.128906,525.671936 2346.130859,498.843872 2346.127686,472.015808 
	C2346.126953,465.454956 2345.973877,465.280762 2339.414062,465.277710 
	C2312.919189,465.265381 2286.424561,465.270294 2259.929688,465.272797 
	C2253.346924,465.273407 2253.340088,465.280212 2253.340088,471.747864 
	C2253.338623,645.380310 2253.338623,819.012756 2253.338135,992.645203 
	C2253.338135,994.403320 2253.337891,996.161438 2253.337891,997.809204 
	C2284.646484,997.809204 2315.198975,997.809204 2346.128906,997.809204 
	C2346.128906,849.389771 2346.128906,701.444885 2346.128906,552.500000 
M2238.848877,225.350250 
	C2237.806641,232.846054 2235.721924,240.373276 2235.946533,247.830917 
	C2236.370850,261.910736 2242.021729,274.222046 2251.082764,285.167847 
	C2260.077393,296.033203 2271.254150,303.530762 2284.709473,306.761658 
	C2304.670898,311.554657 2322.979248,307.462616 2339.185791,294.304138 
	C2352.153076,283.775879 2360.372559,270.220825 2362.445557,254.047867 
	C2365.536621,229.934006 2358.027100,209.246475 2337.912598,194.276993 
	C2317.779541,179.293427 2295.824463,177.007935 2273.181885,187.099609 
	C2256.664062,194.461426 2245.323975,207.459595 2238.848877,225.350250 
M1040.001709,1035.489746 
	C1040.300903,1035.522095 1040.599976,1035.554443 1040.899170,1035.586792 
	C1040.766113,1035.390747 1040.632935,1035.194824 1040.001709,1035.489746 
z"/>
<path fill="#232323" opacity="1.000000" stroke="none" 
	d="
M1589.522827,958.477844 
	C1546.283081,907.869446 1503.264282,857.538818 1460.253174,807.201599 
	C1416.160400,755.598450 1372.076416,703.987854 1327.986084,652.382629 
	C1316.421875,638.847534 1304.854370,625.315369 1293.270508,611.797119 
	C1292.132080,610.468689 1290.868042,609.247864 1288.488647,606.740295 
	C1288.207397,610.632690 1287.891602,612.967102 1287.891113,615.301514 
	C1287.867065,740.626038 1287.869751,865.950623 1287.869141,991.275146 
	C1287.869019,998.281982 1287.867310,998.282776 1280.822632,998.282898 
	C1252.324585,998.283203 1223.826660,998.282898 1195.328613,998.282898 
	C1193.519165,998.282898 1191.709839,998.282898 1189.126587,998.282898 
	C1189.126587,996.087830 1189.126587,994.321716 1189.126587,992.555603 
	C1189.126587,725.907593 1189.140137,459.259644 1189.017700,192.611710 
	C1189.015625,187.844070 1190.467773,186.838898 1194.931641,186.867432 
	C1223.928345,187.052750 1252.927979,187.078751 1281.924072,186.848877 
	C1286.875977,186.809616 1287.970459,188.383331 1287.965210,193.085403 
	C1287.841309,304.244141 1287.866455,415.403076 1287.891602,526.561951 
	C1287.892090,528.771545 1288.220337,530.981079 1288.395752,533.190613 
	C1289.267212,533.804626 1290.138672,534.418701 1291.010132,535.032715 
	C1291.773071,533.337891 1292.162964,531.302979 1293.353027,529.997192 
	C1343.582520,474.880493 1393.881836,419.827118 1444.175903,364.769104 
	C1497.267212,306.648712 1550.342407,248.513336 1603.547119,190.496857 
	C1605.209229,188.684433 1608.219971,187.126053 1610.611450,187.112427 
	C1647.774292,186.900742 1684.938721,186.960052 1722.102783,186.978928 
	C1723.544434,186.979660 1724.985962,187.202133 1727.520264,187.411591 
	C1724.785034,190.509842 1722.701904,192.966507 1720.517456,195.329483 
	C1665.142578,255.234558 1609.741089,315.114990 1554.377930,375.030884 
	C1496.198975,437.994171 1438.075684,501.009003 1379.828369,563.909058 
	C1377.196533,566.751038 1377.765503,568.424072 1379.941162,570.954163 
	C1402.620728,597.328491 1425.228882,623.764343 1447.831299,650.204834 
	C1486.964844,695.983093 1526.075439,741.781006 1565.204590,787.563171 
	C1624.078491,856.447266 1682.960815,925.324219 1741.829468,994.212952 
	C1742.651123,995.174377 1743.340698,996.248596 1744.577393,997.929810 
	C1742.316528,998.078857 1740.756958,998.270691 1739.197388,998.271362 
	C1702.366577,998.287842 1665.535767,998.232239 1628.705322,998.362976 
	C1625.016357,998.376038 1622.534180,997.283997 1620.179199,994.468323 
	C1610.145264,982.471130 1599.909424,970.642700 1589.522827,958.477844 
z"/>
<path fill="#212121" opacity="1.000000" stroke="none" 
	d="
M223.987549,624.028809 
	C227.699402,623.997803 231.411240,623.966797 235.795654,624.263184 
	C236.886154,624.695862 237.304077,624.801147 237.722015,624.906372 
	C237.722015,624.906372 237.828262,624.817322 238.157379,625.173584 
	C242.646774,625.393250 246.807037,625.256775 250.967316,625.120239 
	C256.761475,625.433289 262.553375,625.798828 268.350220,626.049438 
	C285.398132,626.786682 302.450287,627.428894 319.496521,628.201233 
	C338.186035,629.048035 356.869690,630.023743 375.558105,630.895996 
	C391.604736,631.644958 407.653748,632.344788 423.703064,633.034912 
	C446.053131,633.995911 468.402191,634.986511 490.756042,635.852051 
	C507.120453,636.485657 523.493774,636.889954 539.856750,637.554443 
	C541.316956,637.613708 542.922913,638.594727 544.136841,639.556885 
	C592.811279,678.136536 641.474304,716.730652 690.082214,755.393982 
	C734.699280,790.882935 779.232300,826.477478 823.838135,861.980530 
	C864.549194,894.383606 905.297119,926.740295 946.050476,959.090149 
	C966.618347,975.416992 987.293823,991.608765 1007.803284,1008.008362 
	C1018.069641,1016.217529 1028.072876,1024.755859 1037.690552,1033.558838 
	C1036.021729,1033.981689 1034.857422,1033.998901 1033.693115,1033.998901 
	C959.666260,1034.000122 885.639404,1033.987427 811.612610,1034.072021 
	C809.750977,1034.074097 807.890503,1035.147461 806.029480,1035.721069 
	C784.887390,1035.785034 763.735168,1035.494873 742.608398,1036.096680 
	C734.754944,1036.320312 728.913025,1033.852295 722.918335,1029.123779 
	C702.318298,1012.875427 681.323608,997.128113 660.523743,981.132019 
	C634.995972,961.500061 609.552124,941.758850 583.997986,922.161377 
	C563.752075,906.634705 543.333618,891.332825 523.101807,875.787903 
	C496.312225,855.204285 469.662903,834.438171 442.892487,813.829529 
	C414.694366,792.121826 386.396606,770.543640 358.193268,748.842712 
	C322.770966,721.587219 287.412506,694.248840 252.002533,666.977295 
	C235.076477,653.941528 218.095169,640.977478 201.036041,627.204468 
	C200.833405,625.491394 200.733673,624.554749 200.633942,623.618103 
	C200.633942,623.618103 200.980606,623.702454 201.285248,623.777588 
	C204.855225,624.195618 208.120667,624.813843 211.385880,624.812683 
	C215.586533,624.811157 219.787003,624.312988 223.987549,624.028809 
z"/>
<path fill="#212121" opacity="1.000000" stroke="none" 
	d="
M729.925415,154.679871 
	C730.023010,154.529724 730.120667,154.379608 730.674316,154.567902 
	C733.351624,155.265167 735.572693,155.936722 737.794189,155.937912 
	C834.047241,155.990128 930.300293,155.982895 1026.553345,155.982895 
	C1028.575439,155.982895 1030.597656,155.982910 1033.932129,155.982910 
	C1031.991699,158.206238 1031.270996,159.337845 1030.275879,160.120789 
	C1025.073608,164.214111 1019.708313,168.106049 1014.611023,172.323502 
	C1013.090881,173.581314 1012.253967,175.664780 1011.103943,177.369904 
	C1010.680603,177.880630 1010.257202,178.391327 1009.209595,178.996277 
	C1004.749084,180.358627 1001.057495,181.794098 1000.121155,186.413986 
	C1000.121155,186.413986 999.988770,186.548035 999.527161,186.452118 
	C995.161255,187.959000 991.184204,189.478729 990.048096,194.245544 
	C990.048096,194.245544 989.958069,194.417831 989.489990,194.358002 
	C988.001404,194.718369 986.825256,194.938171 985.985107,195.590607 
	C979.485474,200.638123 972.980591,205.684555 966.641602,210.929749 
	C964.902649,212.368561 963.720093,214.479721 962.282288,216.282349 
	C962.282288,216.282364 962.000000,216.000610 961.754517,216.089432 
	C959.697571,217.892563 957.886047,219.606857 956.074524,221.321152 
	C956.074524,221.321152 955.960693,221.442398 955.498413,221.362091 
	C952.048096,223.908234 949.059998,226.534668 946.071899,229.161087 
	C934.891418,238.184891 923.748413,247.255661 912.523132,256.223236 
	C884.517029,278.596527 856.519226,300.980713 828.433350,323.253540 
	C792.972656,351.374756 757.375977,379.324585 721.934937,407.470459 
	C690.495972,432.437988 659.226746,457.619080 627.813599,482.619232 
	C599.767700,504.939728 571.655151,527.176880 543.458008,549.305664 
	C541.828918,550.584229 539.193665,550.957581 536.993103,551.065002 
	C528.051025,551.501831 519.092957,551.597961 510.146515,551.960571 
	C502.705292,552.262146 495.276154,552.869324 487.834473,553.150757 
	C468.118011,553.896667 448.395630,554.486511 428.679474,555.239929 
	C412.792542,555.847046 396.908966,556.553711 381.028046,557.304077 
	C361.852142,558.210022 342.680359,559.203674 323.507263,560.169067 
	C310.127258,560.842773 296.745270,561.481995 283.369202,562.226990 
	C262.737335,563.376038 242.111801,564.639526 221.479126,565.773315 
	C215.350128,566.110107 209.205505,566.299500 203.069626,566.265808 
	C201.732147,566.258484 200.401474,565.007263 199.067688,564.328979 
	C199.841537,563.049500 200.327682,561.397888 201.431198,560.544739 
	C231.045792,537.650085 260.725037,514.838928 290.390778,492.010406 
	C337.973389,455.394348 385.547058,418.766602 433.138611,382.162170 
	C459.502533,361.884705 485.882446,341.628021 512.278137,321.392029 
	C541.596069,298.915771 570.940186,276.473724 600.759155,254.126236 
	C604.956116,253.466415 607.998718,251.920044 608.787048,247.751709 
	C608.787048,247.751709 608.949524,248.012421 609.237671,247.955231 
	C610.456421,247.635818 611.572571,247.618423 612.289917,247.074783 
	C623.736084,238.399521 635.163452,229.698349 646.489502,220.867599 
	C647.659607,219.955261 648.156372,218.179184 648.965515,216.803879 
	C648.965515,216.803879 649.069153,216.643646 649.548950,216.698425 
	C650.801331,216.531433 651.724365,216.509415 652.323730,216.057816 
	C660.772339,209.691788 669.203247,203.301041 677.549072,196.801559 
	C678.329346,196.193863 678.504700,194.809357 678.960938,193.785553 
	C678.960938,193.785553 679.064941,193.631332 679.541504,193.688904 
	C681.491333,193.083496 683.154724,192.669830 684.406189,191.715912 
	C691.116455,186.601364 697.786682,181.428986 704.326233,176.099411 
	C706.124146,174.634186 707.425964,172.560196 708.955444,170.765564 
	C708.955444,170.765579 709.061218,170.619736 709.542969,170.678375 
	C710.939270,169.744110 711.853699,168.751221 712.768127,167.758331 
	C712.768127,167.758316 712.992676,167.992767 713.257812,167.919357 
	C718.696472,164.360519 723.904602,160.924042 728.999023,157.326462 
	C729.620728,156.887405 729.631531,155.583145 729.925415,154.679871 
z"/>
<path fill="#232323" opacity="1.000000" stroke="none" 
	d="
M2786.405273,875.985107 
	C2788.729980,862.043091 2789.200928,848.471375 2784.927490,835.215820 
	C2781.590088,824.863098 2775.466309,816.103455 2767.801270,808.461548 
	C2753.401855,794.106140 2736.373535,783.549805 2717.955566,775.334229 
	C2702.605713,768.487488 2686.706543,762.872253 2671.358643,756.021912 
	C2647.354980,745.308228 2623.267578,734.686768 2599.855469,722.769897 
	C2577.136719,711.205933 2557.260498,695.823425 2540.745850,675.837097 
	C2526.203125,658.237366 2517.664795,638.440979 2514.417969,616.359985 
	C2512.499023,603.310913 2512.401611,590.004761 2513.797119,576.706177 
	C2516.505859,550.890198 2526.129639,528.431458 2543.275391,508.787354 
	C2555.266602,495.048737 2569.559326,484.452515 2585.400635,476.217133 
	C2599.755371,468.754425 2615.266846,463.783539 2631.148193,460.035614 
	C2648.391357,455.966278 2665.799805,453.823059 2683.457031,453.665863 
	C2701.930420,453.501404 2720.146973,455.467468 2738.250977,459.530609 
	C2761.046143,464.646637 2782.300049,473.372070 2802.689209,484.493500 
	C2824.064209,496.152740 2842.621582,511.469208 2858.616211,529.652954 
	C2865.638184,537.635864 2870.938721,547.142090 2876.864258,556.060913 
	C2877.278076,556.683533 2876.744629,558.704163 2876.045410,559.174744 
	C2870.840576,562.678833 2865.486084,565.961792 2860.171387,569.302307 
	C2851.125488,574.987915 2842.034180,580.602539 2833.036865,586.363708 
	C2824.853760,591.603516 2816.831299,597.095764 2808.617920,602.286255 
	C2804.223145,605.063354 2802.130859,603.838013 2797.923828,599.064392 
	C2790.805908,590.987610 2783.448242,583.083252 2775.722656,575.589539 
	C2762.206787,562.479553 2745.936523,553.391968 2728.843262,545.995972 
	C2721.091309,542.641846 2712.610596,540.587402 2704.253906,539.116577 
	C2694.323242,537.368713 2684.178711,536.118591 2674.112549,536.011658 
	C2654.161133,535.799683 2635.047119,539.959106 2618.913574,552.388855 
	C2609.144287,559.915344 2604.564941,570.810669 2603.528809,583.139771 
	C2601.775146,604.007446 2611.629150,619.285706 2626.927490,631.933411 
	C2647.247559,648.732605 2671.063232,659.215271 2694.978271,669.530823 
	C2702.407471,672.735413 2709.657715,676.353577 2717.078369,679.579712 
	C2731.477783,685.840149 2746.308594,691.228271 2760.285645,698.310486 
	C2779.467773,708.030029 2798.513916,718.206604 2816.703857,729.641602 
	C2834.049072,740.545776 2848.838379,754.812561 2860.758545,771.655273 
	C2869.811523,784.447388 2875.465576,798.664246 2878.821045,814.104675 
	C2882.218994,829.741943 2883.273438,845.465515 2881.947754,861.160645 
	C2880.603760,877.072449 2877.111816,892.608643 2871.191162,907.774109 
	C2863.029785,928.679443 2850.097168,945.998230 2834.447266,961.372498 
	C2821.209961,974.376343 2805.671387,984.385559 2788.656494,992.086060 
	C2770.375488,1000.359741 2751.297363,1005.218750 2731.432861,1007.846252 
	C2711.499023,1010.482971 2691.548584,1010.371643 2671.732910,1008.355896 
	C2652.232422,1006.372253 2633.253418,1001.840881 2614.565918,995.057129 
	C2590.044678,986.155579 2568.240723,973.149109 2548.126953,957.099670 
	C2534.655762,946.350342 2522.305176,934.209167 2512.164795,920.147461 
	C2503.059570,907.521057 2494.430664,894.550903 2484.976318,880.840027 
	C2509.946533,865.308899 2533.883789,850.420288 2558.428711,835.153625 
	C2560.425537,837.284729 2563.051514,839.368652 2564.768066,842.037598 
	C2574.966064,857.895447 2587.668213,871.613342 2601.287842,884.453308 
	C2614.750000,897.144775 2629.962891,907.100891 2647.367676,914.061035 
	C2659.019043,918.720398 2670.834717,921.983582 2683.097412,923.766357 
	C2702.384277,926.570190 2721.749512,925.865662 2740.355469,920.283813 
	C2760.619629,914.204407 2776.448975,901.960876 2784.676270,881.585144 
	C2785.353027,879.909485 2785.680908,878.092896 2786.405273,875.985107 
z"/>
<path fill="#232323" opacity="1.000000" stroke="none" 
	d="
M3102.287109,327.000061 
	C3102.287109,371.163147 3102.285400,414.826202 3102.289062,458.489288 
	C3102.289551,465.067902 3102.475098,465.268555 3109.011475,465.271515 
	C3133.842773,465.282745 3158.674561,465.364014 3183.504883,465.192291 
	C3187.804199,465.162567 3189.332764,466.348175 3189.301758,470.813538 
	C3189.125977,496.143555 3189.125244,521.476135 3189.305664,546.806091 
	C3189.336426,551.143005 3188.157471,552.546753 3183.686523,552.509949 
	C3159.023682,552.307068 3134.357910,552.411133 3109.693359,552.413757 
	C3102.290283,552.414490 3102.287598,552.420166 3102.287598,559.648071 
	C3102.286621,703.302917 3102.286865,846.957825 3102.286865,990.612671 
	C3102.286865,992.913208 3102.286865,995.213745 3102.286865,998.009460 
	C3100.079834,998.114014 3098.312500,998.269592 3096.544922,998.270630 
	C3069.713867,998.286255 3042.881104,998.138489 3016.052734,998.406067 
	C3010.866211,998.457825 3009.740967,996.899841 3009.745605,991.926880 
	C3009.880127,848.105469 3009.854492,704.283936 3009.854492,560.462402 
	C3009.854492,552.411438 3009.855469,552.412170 3002.051025,552.412354 
	C2977.719727,552.412842 2953.387451,552.305908 2929.057861,552.503540 
	C2924.205811,552.542969 2922.770996,550.967285 2922.811035,546.158875 
	C2923.019287,521.162659 2923.006104,496.163055 2922.821045,471.166473 
	C2922.786621,466.520294 2924.316406,465.154541 2928.886719,465.188477 
	C2953.716553,465.372864 2978.548584,465.279846 3003.379883,465.272675 
	C3009.674072,465.270844 3009.848877,465.111847 3009.849609,458.852295 
	C3009.857666,401.357025 3009.853516,343.861755 3009.854980,286.366486 
	C3009.855225,279.787964 3009.860596,279.777710 3016.477539,279.776581 
	C3043.308594,279.772034 3070.140381,279.852448 3096.970459,279.691284 
	C3101.069824,279.666626 3102.452393,280.775208 3102.377930,285.005493 
	C3102.134033,298.833252 3102.286865,312.667999 3102.287109,327.000061 
z"/>
<path fill="#242424" opacity="1.000000" stroke="none" 
	d="
M1838.294189,988.909058 
	C1838.294067,816.435486 1838.293579,644.449158 1838.294067,472.462769 
	C1838.294067,465.275391 1838.297119,465.269196 1845.434937,465.268463 
	C1871.932861,465.265808 1898.431396,465.368896 1924.927856,465.171265 
	C1929.516235,465.137054 1931.038574,466.435272 1930.966797,471.091919 
	C1930.725464,486.753632 1930.876099,502.421356 1930.876709,518.086792 
	C1930.876831,519.869812 1930.876831,521.652893 1930.876831,523.435913 
	C1931.281616,523.642212 1931.686279,523.848572 1932.091064,524.054871 
	C1934.492554,520.907349 1936.823853,517.703369 1939.307007,514.621765 
	C1951.833252,499.076569 1965.880371,485.252869 1982.505249,473.935699 
	C2009.164307,455.788025 2038.209473,450.623352 2069.725586,455.342682 
	C2085.211182,457.661560 2100.585205,460.397797 2114.090332,468.434937 
	C2123.558350,474.069519 2131.974854,481.501709 2140.646240,488.400726 
	C2141.600586,489.160095 2141.946289,492.228363 2141.218750,493.330872 
	C2125.747070,516.770264 2110.030029,540.047791 2094.512207,563.457214 
	C2092.411621,566.626221 2090.921387,566.078308 2088.132324,564.337341 
	C2078.854736,558.546082 2069.574951,552.676758 2059.855957,547.695374 
	C2048.424561,541.836243 2035.740967,540.872009 2023.121094,540.668823 
	C2006.479858,540.400818 1990.290405,542.730103 1975.540771,551.107300 
	C1966.325317,556.341248 1959.196411,563.800964 1953.094971,572.459106 
	C1944.134033,585.174438 1939.819824,599.533630 1936.619019,614.504028 
	C1931.649536,637.747620 1930.850586,661.266235 1930.859253,684.894592 
	C1930.896606,787.219849 1930.875244,889.545044 1930.875244,991.870300 
	C1930.875244,993.821350 1930.875122,995.772339 1930.875122,998.304565 
	C1928.477539,998.304565 1926.687134,998.304565 1924.896851,998.304565 
	C1899.065552,998.304443 1873.234253,998.334656 1847.402954,998.289734 
	C1836.646118,998.270996 1838.471436,999.394653 1838.294189,988.909058 
z"/>
<path fill="#232323" opacity="1.000000" stroke="none" 
	d="
M2346.128906,553.000000 
	C2346.128906,701.444885 2346.128906,849.389771 2346.128906,997.809204 
	C2315.198975,997.809204 2284.646484,997.809204 2253.337891,997.809204 
	C2253.337891,996.161438 2253.338135,994.403320 2253.338135,992.645203 
	C2253.338623,819.012756 2253.338623,645.380310 2253.340088,471.747864 
	C2253.340088,465.280212 2253.346924,465.273407 2259.929688,465.272797 
	C2286.424561,465.270294 2312.919189,465.265381 2339.414062,465.277710 
	C2345.973877,465.280762 2346.126953,465.454956 2346.127686,472.015808 
	C2346.130859,498.843872 2346.128906,525.671936 2346.128906,553.000000 
z"/>
<path fill="#212121" opacity="1.000000" stroke="none" 
	d="
M170.987061,404.995850 
	C170.907913,389.636536 170.828781,374.277222 171.176849,358.180878 
	C171.397491,350.960876 171.190903,344.477936 170.984314,337.994965 
	C170.907654,332.302063 170.830978,326.609131 171.180481,320.178986 
	C171.737579,312.333679 171.962189,305.225403 171.946762,298.117676 
	C171.941605,295.742798 171.322952,293.369232 170.984741,290.995087 
	C170.907944,281.302582 170.831131,271.610107 171.180573,261.179626 
	C171.735931,256.654327 172.051544,252.861755 171.945312,249.081039 
	C171.822601,244.714722 171.328079,240.358856 170.995026,235.998444 
	C170.923553,229.969696 170.852081,223.940964 171.198868,217.170578 
	C171.724518,200.174637 171.841309,183.920380 171.899216,167.665909 
	C171.901199,167.111435 171.311600,166.554871 170.997726,165.999298 
	C170.934143,160.967712 170.870560,155.936127 171.212357,150.164368 
	C172.292496,145.906494 172.967239,142.388779 173.641968,138.871078 
	C189.887497,152.423996 206.164734,165.939133 222.371445,179.538300 
	C249.351410,202.177322 276.295319,224.859360 303.237366,247.543518 
	C329.305939,269.492249 355.351135,291.468811 381.414368,313.423859 
	C382.923920,314.695435 384.503815,315.883514 386.558716,317.513092 
	C378.656799,323.910004 371.046600,330.118835 363.385437,336.264038 
	C336.704773,357.665192 309.999298,379.035431 283.316681,400.434143 
	C253.677338,424.204071 224.050858,447.990021 194.423630,471.775055 
	C189.795074,475.490875 185.319702,479.414215 180.524231,482.898529 
	C178.104660,484.656494 175.126724,485.645996 172.172607,486.300964 
	C171.640915,482.416107 171.337860,479.213196 171.034805,476.010315 
	C170.965408,475.557343 170.895996,475.104370 171.230057,474.029846 
	C171.750702,464.987305 171.934479,456.566406 171.937149,448.145416 
	C171.937790,446.099182 171.342361,444.052734 171.021027,442.006409 
	C170.949219,440.930176 170.877396,439.853973 171.215881,438.097290 
	C171.749771,427.657898 171.905029,417.899078 171.950882,408.139740 
	C171.955811,407.093323 171.323685,406.043884 170.987061,404.995850 
z"/>
<path fill="#212121" opacity="1.000000" stroke="none" 
	d="
M177.699905,703.932495 
	C185.375565,709.820068 193.141968,715.593628 200.709839,721.616638 
	C223.044662,739.392090 245.342209,757.214966 267.577332,775.114929 
	C294.333954,796.654907 320.992950,818.316162 347.731110,839.879211 
	C360.704742,850.341797 373.762268,860.700317 387.236908,871.469727 
	C381.656128,876.215576 376.327972,880.786316 370.957367,885.306702 
	C350.974396,902.126099 330.995758,918.950623 310.980865,935.731995 
	C289.572906,953.681274 268.089752,971.540955 246.705811,989.518738 
	C224.182648,1008.454285 201.739166,1027.484619 179.256042,1046.467773 
	C177.873856,1047.634766 176.449951,1048.752563 174.350983,1049.792969 
	C173.426010,1048.081177 172.994034,1046.469727 172.993652,1044.858276 
	C172.966843,932.801331 172.969223,820.744385 173.023773,708.687439 
	C173.024719,706.759216 173.690689,704.831299 174.046356,702.903198 
	C174.464462,702.863892 174.882584,702.824524 175.823151,703.106323 
	C176.797028,703.595764 177.248474,703.764099 177.699905,703.932495 
z"/>
<path fill="#242424" opacity="1.000000" stroke="none" 
	d="
M2238.905273,224.953461 
	C2245.323975,207.459595 2256.664062,194.461426 2273.181885,187.099609 
	C2295.824463,177.007935 2317.779541,179.293427 2337.912598,194.276993 
	C2358.027100,209.246475 2365.536621,229.934006 2362.445557,254.047867 
	C2360.372559,270.220825 2352.153076,283.775879 2339.185791,294.304138 
	C2322.979248,307.462616 2304.670898,311.554657 2284.709473,306.761658 
	C2271.254150,303.530762 2260.077393,296.033203 2251.082764,285.167847 
	C2242.021729,274.222046 2236.370850,261.910736 2235.946533,247.830917 
	C2235.721924,240.373276 2237.806641,232.846054 2238.905273,224.953461 
z"/>
<path fill="#343434" opacity="1.000000" stroke="none" 
	d="
M1011.421997,177.214722 
	C1012.253967,175.664780 1013.090881,173.581314 1014.611023,172.323502 
	C1019.708313,168.106049 1025.073608,164.214111 1030.275879,160.120789 
	C1031.270996,159.337845 1031.991699,158.206238 1033.932129,155.982910 
	C1030.597656,155.982910 1028.575439,155.982895 1026.553345,155.982895 
	C930.300293,155.982895 834.047241,155.990128 737.794189,155.937912 
	C735.572693,155.936722 733.351624,155.265167 730.928223,154.480423 
	C731.935242,153.760040 733.144165,153.208130 734.353394,153.207642 
	C835.838318,153.166687 937.323303,153.168335 1038.808228,153.176483 
	C1039.098267,153.176514 1039.388428,153.316681 1041.062256,153.747803 
	C1030.843506,161.871933 1021.291809,169.465729 1011.421997,177.214722 
z"/>
<path fill="#010101" opacity="1.000000" stroke="none" 
	d="
M173.788666,702.617554 
	C173.690689,704.831299 173.024719,706.759216 173.023773,708.687439 
	C172.969223,820.744385 172.966843,932.801331 172.993652,1044.858276 
	C172.994034,1046.469727 173.426010,1048.081177 174.046295,1049.909790 
	C174.073303,1051.035767 173.710541,1051.944458 173.347794,1052.853271 
	C172.755219,1052.476807 172.162628,1052.100342 171.570053,1051.723877 
	C171.570053,1045.478027 171.568542,1039.232300 171.570282,1032.986450 
	C171.600540,924.382446 171.623093,815.778381 171.739349,707.174438 
	C171.741089,705.559631 172.907898,703.946045 173.788666,702.617554 
z"/>
<path fill="#090909" opacity="1.000000" stroke="none" 
	d="
M806.492676,1035.782227 
	C807.890503,1035.147461 809.750977,1034.074097 811.612610,1034.072021 
	C885.639404,1033.987427 959.666260,1034.000122 1033.693115,1033.998901 
	C1034.857422,1033.998901 1036.021729,1033.981689 1037.660889,1033.919922 
	C1038.135864,1033.867310 1038.091431,1033.888672 1038.052490,1034.171875 
	C1037.995972,1034.860229 1037.978394,1035.265137 1037.960938,1035.670166 
	C1036.468750,1035.729492 1034.976440,1035.840576 1033.484253,1035.840698 
	C957.974792,1035.847534 882.465271,1035.844971 806.492676,1035.782227 
z"/>
<path fill="#343434" opacity="1.000000" stroke="none" 
	d="
M648.614258,216.857346 
	C648.156372,218.179184 647.659607,219.955261 646.489502,220.867599 
	C635.163452,229.698349 623.736084,238.399521 612.289917,247.074783 
	C611.572571,247.618423 610.456421,247.635818 609.148560,247.829514 
	C616.878540,241.397705 624.977478,235.023743 633.096130,228.675079 
	C638.136230,224.733795 643.206360,220.830917 648.614258,216.857346 
z"/>
<path fill="#343434" opacity="1.000000" stroke="none" 
	d="
M708.605713,170.823639 
	C707.425964,172.560196 706.124146,174.634186 704.326233,176.099411 
	C697.786682,181.428986 691.116455,186.601364 684.406189,191.715912 
	C683.154724,192.669830 681.491333,193.083496 679.627563,193.653625 
	C688.909973,186.001083 698.582947,178.441406 708.605713,170.823639 
z"/>
<path fill="#343434" opacity="1.000000" stroke="none" 
	d="
M678.611328,193.841919 
	C678.504700,194.809357 678.329346,196.193863 677.549072,196.801559 
	C669.203247,203.301041 660.772339,209.691788 652.323730,216.057816 
	C651.724365,216.509415 650.801331,216.531433 649.638306,216.665009 
	C658.919128,209.017288 668.590393,201.457794 678.611328,193.841919 
z"/>
<path fill="#343434" opacity="1.000000" stroke="none" 
	d="
M962.622253,216.218292 
	C963.720093,214.479721 964.902649,212.368561 966.641602,210.929749 
	C972.980591,205.684555 979.485474,200.638123 985.985107,195.590607 
	C986.825256,194.938171 988.001404,194.718369 989.407837,194.409973 
	C980.849976,201.732605 971.906128,208.943420 962.622253,216.218292 
z"/>
<path fill="#000000" opacity="1.000000" stroke="none" 
	d="
M170.922882,166.462799 
	C171.311600,166.554871 171.901199,167.111435 171.899216,167.665909 
	C171.841309,183.920380 171.724518,200.174637 171.310364,216.713806 
	C170.951767,200.307877 170.899902,183.617096 170.922882,166.462799 
z"/>
<path fill="#343434" opacity="1.000000" stroke="none" 
	d="
M729.574890,154.753265 
	C729.631531,155.583145 729.620728,156.887405 728.999023,157.326462 
	C723.904602,160.924042 718.696472,164.360519 713.140381,167.807312 
	C718.246643,163.454681 723.735474,159.140686 729.574890,154.753265 
z"/>
<path fill="#030303" opacity="1.000000" stroke="none" 
	d="
M223.619629,623.845825 
	C219.787003,624.312988 215.586533,624.811157 211.385880,624.812683 
	C208.120667,624.813843 204.855225,624.195618 201.108612,623.753052 
	C204.087326,623.577576 207.547424,623.436951 211.007278,623.442932 
	C215.088867,623.450012 219.170227,623.583923 223.619629,623.845825 
z"/>
<path fill="#000000" opacity="1.000000" stroke="none" 
	d="
M170.911331,405.459473 
	C171.323685,406.043884 171.955811,407.093323 171.950882,408.139740 
	C171.905029,417.899078 171.749771,427.657898 171.323608,437.704559 
	C170.959213,427.302521 170.897400,416.612793 170.911331,405.459473 
z"/>
<path fill="#000000" opacity="1.000000" stroke="none" 
	d="
M170.949203,442.469849 
	C171.342361,444.052734 171.937790,446.099182 171.937149,448.145416 
	C171.934479,456.566406 171.750702,464.987305 171.333817,473.697998 
	C170.981857,463.636230 170.929626,453.284760 170.949203,442.469849 
z"/>
<path fill="#000000" opacity="1.000000" stroke="none" 
	d="
M170.907761,291.458557 
	C171.322952,293.369232 171.941605,295.742798 171.946762,298.117676 
	C171.962189,305.225403 171.737579,312.333679 171.295715,319.723755 
	C170.933441,310.644531 170.882111,301.283295 170.907761,291.458557 
z"/>
<path fill="#000000" opacity="1.000000" stroke="none" 
	d="
M170.919220,236.461853 
	C171.328079,240.358856 171.822601,244.714722 171.945312,249.081039 
	C172.051544,252.861755 171.735931,256.654327 171.295883,260.723694 
	C170.937790,252.978928 170.890610,244.952103 170.919220,236.461853 
z"/>
<path fill="#343434" opacity="1.000000" stroke="none" 
	d="
M990.397461,194.178192 
	C991.184204,189.478729 995.161255,187.959000 999.445862,186.499680 
	C996.799744,189.132385 993.773315,191.621613 990.397461,194.178192 
z"/>
<path fill="#343434" opacity="1.000000" stroke="none" 
	d="
M946.418945,229.108429 
	C949.059998,226.534668 952.048096,223.908234 955.426331,221.403503 
	C952.799683,224.035400 949.782837,226.545578 946.418945,229.108429 
z"/>
<path fill="#343434" opacity="1.000000" stroke="none" 
	d="
M1000.466309,186.326569 
	C1001.057495,181.794098 1004.749084,180.358627 1008.977234,179.096619 
	C1006.516479,181.481522 1003.663940,183.860321 1000.466309,186.326569 
z"/>
<path fill="#343434" opacity="1.000000" stroke="none" 
	d="
M608.450073,247.820374 
	C607.998718,251.920044 604.956116,253.466415 601.064819,253.965851 
	C603.293823,251.760376 605.703430,249.824707 608.450073,247.820374 
z"/>
<path fill="#000000" opacity="1.000000" stroke="none" 
	d="
M170.907318,338.458191 
	C171.190903,344.477936 171.397491,350.960876 171.293335,357.725281 
	C170.931839,351.644928 170.881073,345.283173 170.907318,338.458191 
z"/>
<path fill="#343434" opacity="1.000000" stroke="none" 
	d="
M956.418091,221.253677 
	C957.886047,219.606857 959.697571,217.892563 961.894287,216.231659 
	C960.440247,217.918793 958.601013,219.552490 956.418091,221.253677 
z"/>
<path fill="#000000" opacity="1.000000" stroke="none" 
	d="
M173.408981,138.530869 
	C172.967239,142.388779 172.292496,145.906494 171.320465,149.707855 
	C171.023193,145.792709 171.023193,141.593918 171.023193,136.930618 
	C171.923325,137.457458 172.549652,137.824066 173.408981,138.530869 
z"/>
<path fill="#030303" opacity="1.000000" stroke="none" 
	d="
M250.519089,625.002441 
	C246.807037,625.256775 242.646774,625.393250 238.217392,625.208252 
	C241.989151,624.885986 246.029999,624.885315 250.519089,625.002441 
z"/>
<path fill="#000000" opacity="1.000000" stroke="none" 
	d="
M170.965042,476.460510 
	C171.337860,479.213196 171.640915,482.416107 171.937729,486.105408 
	C171.586090,483.364777 171.240677,480.137756 170.965042,476.460510 
z"/>
<path fill="#343434" opacity="1.000000" stroke="none" 
	d="
M712.455444,167.864258 
	C711.853699,168.751221 710.939270,169.744110 709.625610,170.642426 
	C710.198547,169.688629 711.170654,168.829407 712.455444,167.864258 
z"/>
<path fill="#030303" opacity="1.000000" stroke="none" 
	d="
M200.350067,623.882141 
	C200.733673,624.554749 200.833405,625.491394 200.920044,626.897461 
	C200.626694,626.293335 200.346451,625.219788 200.350067,623.882141 
z"/>
<path fill="#212121" opacity="1.000000" stroke="none" 
	d="
M1038.343262,1035.752930 
	C1037.978394,1035.265137 1037.995972,1034.860229 1038.067383,1034.155029 
	C1038.322632,1034.515137 1038.524170,1035.175537 1038.343262,1035.752930 
z"/>
<path fill="#030303" opacity="1.000000" stroke="none" 
	d="
M237.528503,624.624146 
	C237.304077,624.801147 236.886154,624.695862 236.251099,624.352783 
	C236.467636,624.190613 236.901321,624.266235 237.528503,624.624146 
z"/>
<path fill="#010101" opacity="1.000000" stroke="none" 
	d="
M177.497131,703.574707 
	C177.248474,703.764099 176.797028,703.595764 176.137054,703.132202 
	C176.383789,702.963562 176.839066,703.090210 177.497131,703.574707 
z"/>
<path fill="#212121" opacity="1.000000" stroke="none" 
	d="
M1040.250732,1035.244263 
	C1040.632935,1035.194824 1040.766113,1035.390747 1040.899170,1035.586914 
	C1040.599976,1035.554443 1040.300903,1035.522095 1040.250732,1035.244263 
z"/>
</svg>