<svg version="1.1" id="Layer_1" xmlns="http://www.w3.org/2000/svg" xmlns:xlink="http://www.w3.org/1999/xlink" x="0px" y="0px"
	 width="100%" viewBox="0 0 560 208" enable-background="new 0 0 560 208" xml:space="preserve">
<path fill="#000000" opacity="1.000000" stroke="none" 
	d="
M217.650513,161.971527 
	C217.650940,124.669930 217.739410,87.863899 217.548584,51.059330 
	C217.522858,46.098564 218.785416,43.923042 223.942078,44.622025 
	C227.188004,45.062000 230.551147,44.159817 234.435699,45.372139 
	C234.435699,60.170677 234.435699,75.043732 234.435699,89.755760 
	C236.982819,90.415947 237.736618,88.857887 238.729446,87.860535 
	C251.286133,75.246559 263.858887,62.648014 276.329163,49.948967 
	C279.289825,46.934006 282.404846,45.277489 286.843109,45.571541 
	C292.755402,45.963242 298.713165,45.668278 304.521454,45.668278 
	C305.348114,48.950745 303.122406,49.890278 301.846466,51.186401 
	C285.883148,67.402168 269.906525,83.605911 253.788803,99.667671 
	C251.101776,102.345352 250.756912,104.476311 253.250320,107.305336 
	C259.277832,114.144234 265.249664,121.033134 271.177887,127.958374 
	C280.321136,138.639297 289.411682,149.365341 298.518982,160.076981 
	C300.986176,162.978745 303.465973,165.870728 305.880432,168.816055 
	C308.282196,171.745972 306.778534,173.142258 303.744110,173.253250 
	C298.588715,173.441849 293.421204,173.285904 288.258911,173.308517 
	C286.613831,173.315735 285.398315,172.531448 284.369843,171.377914 
	C274.664948,160.493027 265.159821,149.421753 255.202667,138.772995 
	C248.678589,131.795776 242.831421,124.150024 235.587082,117.789040 
	C233.620667,119.442520 234.414932,121.409973 234.406082,123.108467 
	C234.328857,137.930161 234.227173,152.753891 234.416779,167.573410 
	C234.469757,171.713852 233.014832,173.075623 228.965271,173.170563 
	C217.651260,173.435806 217.654526,173.574844 217.650513,161.971527 
z"/>
<path fill="#000000" opacity="1.000000" stroke="none" 
	d="
M146.116150,139.807587 
	C160.455536,151.609192 174.513428,163.196594 188.601456,174.747223 
	C190.394363,176.217194 192.347504,177.492783 193.028748,179.918213 
	C191.821045,182.067154 189.776260,181.315109 188.102997,181.326202 
	C176.786057,181.401184 165.457199,181.072784 154.155869,181.500214 
	C148.785095,181.703339 144.710953,180.127594 140.632401,176.822266 
	C119.645424,159.814041 99.005798,142.396225 78.494354,124.822220 
	C74.682625,121.556366 70.775719,118.401596 66.972176,115.244888 
	C68.326759,113.344559 69.586220,113.676270 70.672157,113.673775 
	C83.986694,113.643166 97.302437,113.751625 110.615257,113.598000 
	C114.655716,113.551361 116.890495,116.318512 119.540375,118.410988 
	C128.373154,125.385811 137.085480,132.513168 146.116150,139.807587 
z"/>
<path fill="#000000" opacity="1.000000" stroke="none" 
	d="
M158.006485,38.648285 
	C168.584442,38.648155 178.663773,38.648155 189.851898,38.648155 
	C187.285294,43.833767 183.263657,45.844860 180.227081,48.512173 
	C165.800537,61.184364 151.142609,73.599709 136.363266,85.860847 
	C129.219986,91.787003 122.053192,97.671875 115.228630,103.963463 
	C114.332466,104.789642 113.350609,105.324654 112.114197,105.324661 
	C96.971878,105.324829 81.829559,105.324776 66.716888,105.324776 
	C66.131523,102.530319 68.031990,101.799484 69.376770,100.673904 
	C83.113312,89.176422 96.860466,77.691437 110.560020,66.149971 
	C119.944443,58.243889 129.250290,50.244591 138.608276,42.307034 
	C141.742966,39.648155 145.191910,38.051926 149.515594,38.586842 
	C152.142014,38.911774 154.841309,38.647823 158.006485,38.648285 
z"/>
<path fill="#000000" opacity="1.000000" stroke="none" 
	d="
M446.716492,159.310516 
	C454.770081,162.817673 460.438416,162.341568 464.611969,158.007233 
	C470.218628,152.184525 468.390045,142.707565 460.523682,138.317535 
	C455.181854,135.336395 449.651398,132.729919 443.648254,131.112045 
	C438.181427,129.638687 433.127136,126.984482 428.587036,123.562286 
	C422.014771,118.608307 420.386749,111.366669 424.002258,104.099869 
	C431.467590,89.095261 446.937042,82.045959 463.161743,87.059227 
	C469.462616,89.006142 475.133087,92.822281 478.823212,98.755142 
	C481.104156,102.422440 481.211609,106.303772 478.083282,109.260284 
	C475.118988,112.061768 471.368561,112.699287 467.684326,109.907120 
	C464.244385,107.300087 460.107483,105.874588 456.665100,103.158455 
	C453.104980,100.349442 447.447418,100.792221 444.707245,103.414238 
	C439.318329,108.570801 440.197968,113.148483 447.195404,115.717888 
	C455.927551,118.924255 464.634491,122.102844 472.465912,127.320297 
	C484.565338,135.381180 489.199890,149.314163 482.874847,162.405167 
	C479.515320,169.358414 472.561340,172.714523 464.926910,173.225525 
	C457.468811,173.724716 449.949127,173.430557 442.459747,173.298004 
	C435.712280,173.178574 424.177673,164.508331 422.114166,158.191254 
	C420.972351,154.695770 422.287842,151.928787 425.075073,149.912201 
	C428.191010,147.657791 431.455505,148.365982 434.371490,150.345886 
	C438.474121,153.131516 441.860016,156.909058 446.716492,159.310516 
z"/>
<path fill="#000000" opacity="1.000000" stroke="none" 
	d="
M502.622223,106.545616 
	C502.438202,103.568665 500.655426,103.362816 498.691742,103.367798 
	C496.526154,103.373299 494.358887,103.274567 492.195221,103.331223 
	C489.634918,103.398277 488.550018,102.178139 488.673676,99.686409 
	C488.723145,98.689774 488.656616,97.687790 488.656494,96.688240 
	C488.655762,89.676643 488.656921,89.676636 495.800446,89.653496 
	C502.633545,89.631363 502.638367,89.631371 502.650299,82.751587 
	C502.659851,77.253464 502.643646,71.755295 502.661011,66.257210 
	C502.681915,59.632782 502.707611,59.916798 509.236969,59.558971 
	C514.062195,59.294537 515.735046,60.895885 515.437805,65.746117 
	C515.061401,71.887558 515.546631,78.078278 515.279114,84.231171 
	C515.103333,88.273941 516.335876,90.272141 520.591980,89.655174 
	C520.755127,89.631531 520.924744,89.652390 521.091370,89.653831 
	C529.075317,89.722824 531.431274,93.129799 529.253540,101.128410 
	C528.547485,103.721481 526.640564,103.249275 524.904236,103.323006 
	C515.350769,103.728699 515.349243,103.714691 515.348572,113.067337 
	C515.347229,131.227814 515.158020,149.391495 515.465088,167.546768 
	C515.553589,172.777298 513.380249,173.455246 508.972198,173.481735 
	C504.454346,173.508911 502.478058,172.579208 502.547058,167.460770 
	C502.818756,147.304779 502.646759,127.142822 502.622223,106.545616 
z"/>
<path fill="#000000" opacity="1.000000" stroke="none" 
	d="
M335.774353,111.275681 
	C335.516815,130.116699 335.244904,148.600800 335.468048,167.078918 
	C335.530243,172.229965 333.930237,173.665421 328.941162,173.448242 
	C318.643188,172.999969 319.682861,174.512543 319.663025,163.919479 
	C319.619049,140.434677 319.650177,116.949730 319.650635,93.464836 
	C319.650696,91.479004 319.650665,89.493172 319.650665,86.982460 
	C324.519379,86.426018 329.048340,86.251610 333.317993,86.834999 
	C335.074371,88.885139 333.478546,91.554764 335.234589,93.055977 
	C337.253387,93.723007 338.223602,92.336693 339.313202,91.416740 
	C346.328583,85.493706 354.070129,85.383896 362.183350,88.557259 
	C365.898682,90.010452 366.976715,92.988022 366.025238,96.636703 
	C365.192169,99.831146 362.712891,101.631996 359.641144,100.644356 
	C350.156982,97.594994 343.683868,102.025673 337.898010,108.646080 
	C337.241394,109.397369 336.597137,110.159447 335.774353,111.275681 
z"/>
<path fill="#000000" opacity="1.000000" stroke="none" 
	d="
M398.348297,103.003769 
	C398.348022,124.827461 398.240295,146.153183 398.433472,167.476166 
	C398.474426,171.995377 397.172363,174.040100 392.516754,173.368988 
	C391.374390,173.204330 390.173248,173.226883 389.024323,173.368134 
	C384.883118,173.877274 383.555542,172.100739 383.582825,167.988403 
	C383.732025,145.498459 383.651794,123.007004 383.650757,100.516068 
	C383.650635,97.517281 383.874817,94.497787 383.598358,91.524780 
	C383.228027,87.542404 385.067017,86.080200 388.745483,86.164993 
	C390.077118,86.195694 391.412231,86.196579 392.742615,86.138260 
	C396.867981,85.957428 398.863251,87.545723 398.413330,92.016075 
	C398.064789,95.479431 398.346558,99.006218 398.348297,103.003769 
z"/>
<path fill="#000000" opacity="1.000000" stroke="none" 
	d="
M56.654575,66.999763 
	C56.654747,57.424046 56.654747,48.348324 56.654747,39.249115 
	C61.036022,39.475311 83.238113,60.136486 88.377686,68.319550 
	C78.342178,75.858475 68.469452,83.707047 56.654404,91.494980 
	C56.654404,82.815956 56.654404,75.157852 56.654575,66.999763 
z"/>
<path fill="#000000" opacity="1.000000" stroke="none" 
	d="
M85.140671,149.926941 
	C86.751846,151.411057 87.654900,152.578629 85.908119,154.307724 
	C77.501686,162.628998 69.160042,171.015717 60.760387,179.343887 
	C60.343067,179.757660 59.597939,179.840805 58.292797,180.363083 
	C58.292797,161.352478 58.292797,142.787491 58.292797,124.222504 
	C58.622856,123.927322 58.952915,123.632133 59.282974,123.336952 
	C67.817894,132.113220 76.352821,140.889481 85.140671,149.926941 
z"/>
<path fill="#000000" opacity="1.000000" stroke="none" 
	d="
M402.177917,59.629425 
	C398.230377,64.460129 390.609650,66.072960 385.716492,63.244419 
	C382.392883,61.323177 379.999939,58.336521 380.358337,54.393764 
	C380.760468,49.969879 382.794312,46.224216 387.375549,44.515091 
	C391.788025,42.868912 395.820007,43.308914 399.262390,46.714676 
	C402.836761,50.250957 404.510223,54.292469 402.177917,59.629425 
z"/>
</svg>